<svg xmlns="http://www.w3.org/2000/svg" viewBox="0 0 52 52" fill="none">
  <rect x="4" y="4" width="44" height="44" rx="10" fill="#070712" />
  <path
    d="M26 12.4c-2.5 2.15-5.66 3.51-8.65 3.83a1.14 1.14 0 0 0-1.01 1.15v6.77c0 6.95 3.93 11.77 8.78 13.98.56.26 1.2.26 1.77 0 4.85-2.21 8.77-7.03 8.77-13.98v-6.77a1.14 1.14 0 0 0-1-1.15c-3-.32-6.16-1.68-8.66-3.83a1.13 1.13 0 0 0-1.43 0Z"
    stroke="#FFFFFF"
    stroke-width="3.15"
    stroke-linecap="round"
    stroke-linejoin="round"
  />
  <path
    d="m21.25 25.75 3.68 3.66 6.35-6.9"
    stroke="#FFFFFF"
    stroke-width="3.15"
    stroke-linecap="round"
    stroke-linejoin="round"
  />
</svg>
